<svg width="36" height="36" viewBox="0 0 36 36" fill="none" xmlns="http://www.w3.org/2000/svg">
<path d="M34.7831 7.09076L23.8754 17.9998L34.7831 28.9082C36.4056 30.5313 36.4056 33.1606 34.7831 34.7837C33.9725 35.5943 32.9096 36 31.8473 36C30.7832 36 29.7203 35.595 28.9102 34.7837L18.0001 23.874L7.09071 34.7836C6.28015 35.5942 5.2172 35.9999 4.15394 35.9999C3.09099 35.9999 2.02877 35.5949 1.21748 34.7836C-0.405 33.1612 -0.405 30.5319 1.21748 28.9081L12.125 17.9996L1.21686 7.09076C-0.40562 5.46827 -0.40562 2.83843 1.21686 1.21594C2.83903 -0.405312 5.4673 -0.405312 7.09009 1.21594L17.9999 12.1249L28.909 1.21594C30.5321 -0.405312 33.1607 -0.405312 34.7825 1.21594C36.4056 2.83843 36.4056 5.46827 34.7831 7.09076Z" fill="#001062"/>
</svg>
